<svg width="130" height="25" viewBox="0 0 130 25" fill="none" xmlns="http://www.w3.org/2000/svg">
<path d="M4.41113 14.325V11.575L15.6611 6.275V10.35L9.78613 12.95L15.6611 15.55V19.625L4.41113 14.325ZM30.9023 14.65C30.8523 15.65 30.6773 16.5083 30.3773 17.225C30.094 17.925 29.7107 18.5 29.2273 18.95C28.744 19.4 28.169 19.7333 27.5023 19.95C26.8523 20.15 26.119 20.25 25.3023 20.25C24.3523 20.25 23.5023 20.0917 22.7523 19.775C22.0023 19.4417 21.369 18.975 20.8523 18.375C20.3523 17.775 19.9607 17.0583 19.6773 16.225C19.4107 15.375 19.2773 14.4417 19.2773 13.425C19.2773 12.4083 19.4107 11.4833 19.6773 10.65C19.9607 9.8 20.3523 9.075 20.8523 8.475C21.369 7.875 22.0023 7.41667 22.7523 7.1C23.5023 6.76667 24.3523 6.6 25.3023 6.6C26.0357 6.6 26.719 6.675 27.3523 6.825C27.9857 6.975 28.544 7.24167 29.0273 7.625C29.5107 8.00833 29.9023 8.525 30.2023 9.175C30.519 9.825 30.7273 10.65 30.8273 11.65H26.5773C26.494 11.2167 26.3523 10.9083 26.1523 10.725C25.969 10.5417 25.6857 10.45 25.3023 10.45C24.869 10.45 24.494 10.675 24.1773 11.125C23.8773 11.575 23.7273 12.3417 23.7273 13.425C23.7273 14.025 23.7773 14.525 23.8773 14.925C23.9773 15.3083 24.1023 15.6167 24.2523 15.85C24.4023 16.0667 24.569 16.2167 24.7523 16.3C24.9357 16.3833 25.119 16.425 25.3023 16.425C25.7357 16.425 26.044 16.2667 26.2273 15.95C26.4107 15.6167 26.5273 15.1833 26.5773 14.65H30.9023ZM42.1416 13.425C42.1416 12.3917 41.9333 11.6333 41.5166 11.15C41.0999 10.65 40.5999 10.4 40.0166 10.4C39.4333 10.4 38.9333 10.65 38.5166 11.15C38.0999 11.6333 37.8916 12.3917 37.8916 13.425C37.8916 14.4583 38.0999 15.225 38.5166 15.725C38.9333 16.2083 39.4333 16.45 40.0166 16.45C40.5999 16.45 41.0999 16.2083 41.5166 15.725C41.9333 15.225 42.1416 14.4583 42.1416 13.425ZM46.5916 13.425C46.5916 14.4417 46.4333 15.3667 46.1166 16.2C45.7999 17.0333 45.3499 17.75 44.7666 18.35C44.1999 18.95 43.5083 19.4167 42.6916 19.75C41.8916 20.0833 40.9999 20.25 40.0166 20.25C39.0333 20.25 38.1333 20.0833 37.3166 19.75C36.5166 19.4167 35.8249 18.95 35.2416 18.35C34.6749 17.75 34.2333 17.0333 33.9166 16.2C33.5999 15.3667 33.4416 14.4417 33.4416 13.425C33.4416 12.4083 33.5999 11.4833 33.9166 10.65C34.2333 9.81667 34.6749 9.1 35.2416 8.5C35.8249 7.9 36.5166 7.43333 37.3166 7.1C38.1333 6.76667 39.0333 6.6 40.0166 6.6C40.9999 6.6 41.8916 6.76667 42.6916 7.1C43.5083 7.43333 44.1999 7.9 44.7666 8.5C45.3499 9.1 45.7999 9.81667 46.1166 10.65C46.4333 11.4833 46.5916 12.4083 46.5916 13.425ZM57.8828 13.425C57.8828 12.525 57.6995 11.8 57.3328 11.25C56.9828 10.6833 56.4911 10.4 55.8578 10.4C55.2245 10.4 54.7245 10.6833 54.3578 11.25C54.0078 11.8 53.8328 12.525 53.8328 13.425C53.8328 14.325 54.0078 15.0583 54.3578 15.625C54.7245 16.175 55.2245 16.45 55.8578 16.45C56.4911 16.45 56.9828 16.175 57.3328 15.625C57.6995 15.0583 57.8828 14.325 57.8828 13.425ZM58.1328 20V18.975C57.8995 19.3583 57.5161 19.6667 56.9828 19.9C56.4661 20.1333 55.8328 20.25 55.0828 20.25C53.4495 20.25 52.1495 19.775 51.1828 18.825C50.5495 18.2083 50.0911 17.4333 49.8078 16.5C49.5245 15.5667 49.3828 14.5417 49.3828 13.425C49.3828 12.3083 49.5161 11.2917 49.7828 10.375C50.0495 9.44167 50.4995 8.66667 51.1328 8.05C52.1161 7.08333 53.3995 6.6 54.9828 6.6C55.6828 6.6 56.2828 6.71667 56.7828 6.95C57.2828 7.16667 57.6495 7.43333 57.8828 7.75V2H62.2078V20H58.1328ZM74.074 11.95C74.074 11.7667 74.049 11.55 73.999 11.3C73.949 11.0333 73.849 10.7833 73.699 10.55C73.549 10.3 73.3407 10.0917 73.074 9.925C72.8074 9.74167 72.4574 9.65 72.024 9.65C71.5907 9.65 71.2407 9.74167 70.974 9.925C70.7074 10.0917 70.499 10.3 70.349 10.55C70.199 10.7833 70.0907 11.0333 70.024 11.3C69.974 11.55 69.949 11.7667 69.949 11.95H74.074ZM69.949 14.325C69.949 15.225 70.1407 15.9 70.524 16.35C70.9074 16.8 71.4407 17.025 72.124 17.025C72.6574 17.025 73.0574 16.975 73.324 16.875C73.5907 16.7583 73.7907 16.5333 73.924 16.2H78.224C78.0407 17.0667 77.749 17.7667 77.349 18.3C76.9657 18.8167 76.499 19.225 75.949 19.525C75.4157 19.8083 74.824 20 74.174 20.1C73.524 20.2 72.8407 20.25 72.124 20.25C69.9907 20.25 68.3657 19.675 67.249 18.525C66.149 17.375 65.599 15.7167 65.599 13.55C65.599 12.5333 65.749 11.6 66.049 10.75C66.349 9.9 66.774 9.16667 67.324 8.55C67.874 7.93333 68.5407 7.45833 69.324 7.125C70.124 6.775 71.024 6.6 72.024 6.6C73.224 6.6 74.2324 6.79167 75.049 7.175C75.8657 7.55833 76.524 8.09167 77.024 8.775C77.524 9.45833 77.8824 10.275 78.099 11.225C78.3157 12.1583 78.424 13.1917 78.424 14.325H69.949ZM86.7902 21.3H82.1402L89.1902 2H93.8402L86.7902 21.3ZM105.156 8.5C105.156 8.16667 105.065 7.86667 104.881 7.6C104.698 7.31667 104.34 7.175 103.806 7.175H102.781V9.825H103.806C104.34 9.825 104.698 9.69167 104.881 9.425C105.065 9.14167 105.156 8.83333 105.156 8.5ZM106.181 20L102.881 13.75H102.781V20H98.4314V3.3H104.006C104.823 3.3 105.573 3.425 106.256 3.675C106.956 3.925 107.548 4.275 108.031 4.725C108.531 5.175 108.915 5.725 109.181 6.375C109.465 7.00833 109.606 7.71667 109.606 8.5C109.606 9.5 109.39 10.3917 108.956 11.175C108.54 11.9417 107.931 12.5417 107.131 12.975L111.206 20H106.181ZM114.348 19.625V15.55L120.223 12.95L114.348 10.35V6.275L125.598 11.575V14.325L114.348 19.625Z" fill="black"/>
</svg>
