<svg width="255" height="111" viewBox="0 0 255 111" fill="none" xmlns="http://www.w3.org/2000/svg">
<g clip-path="url(#clip0)">
<path d="M7.69117 16.7H53.0302V25.506H17.5682V53.947H50.6502V62.753H17.5682V100H7.69117V16.7ZM69.1668 17.533C72.1814 16.9777 75.6324 16.5413 79.5198 16.224C83.4864 15.9067 87.0961 15.748 90.3488 15.748C93.9981 15.748 97.4491 16.1447 100.702 16.938C104.034 17.7313 106.929 19.0403 109.389 20.865C111.927 22.6897 113.95 25.0697 115.458 28.005C116.965 30.9403 117.719 34.5103 117.719 38.715C117.719 45.2203 115.934 50.496 112.364 54.542C108.794 58.588 104.272 61.2853 98.7978 62.634L104.51 67.037L125.216 100H113.673L90.7058 64.062L79.0438 62.277V100H69.1668V17.533ZM90.5868 24.316C89.5554 24.316 88.4844 24.316 87.3738 24.316C86.2631 24.316 85.1921 24.3557 84.1608 24.435C83.1294 24.5143 82.1378 24.5937 81.1858 24.673C80.3131 24.7523 79.5991 24.8713 79.0438 25.03V55.732H88.3258C93.7998 55.732 98.3218 54.3833 101.892 51.686C105.462 48.9887 107.247 44.784 107.247 39.072C107.247 34.788 105.779 31.2577 102.844 28.481C99.9084 25.7043 95.8228 24.316 90.5868 24.316ZM139.939 16.7H185.278V25.506H149.816V52.757H182.303V61.563H149.816V91.194H185.873V100H139.939V16.7ZM203.739 16.7H249.078V25.506H213.616V52.757H246.103V61.563H213.616V91.194H249.673V100H203.739V16.7Z" fill="black"/>
</g>
<defs>
<clipPath id="clip0">
<rect width="255" height="111" fill="white"/>
</clipPath>
</defs>
</svg>
