<svg width="255" height="111" viewBox="0 0 255 111" fill="none" xmlns="http://www.w3.org/2000/svg">
<g clip-path="url(#clip0)">
<path d="M7.16032 21.218V44.066H31.3173V54.776H7.16032V90H-4.73968V10.508H36.9103V21.218H7.16032ZM98.3822 33.713C98.3822 29.905 97.2715 26.8903 95.0502 24.669C92.9082 22.3683 89.6952 21.218 85.4112 21.218H73.8682V46.089H85.4112C89.6952 46.089 92.9082 44.9783 95.0502 42.757C97.2715 40.5357 98.3822 37.521 98.3822 33.713ZM101.238 90L83.0312 56.918H73.8682V90H61.8492V10.508H86.2442C89.5762 10.508 92.7099 11.0237 95.6452 12.055C98.6599 13.007 101.278 14.4747 103.499 16.458C105.721 18.362 107.466 20.7817 108.735 23.717C110.084 26.573 110.758 29.905 110.758 33.713C110.758 39.3457 109.41 43.9867 106.712 47.636C104.015 51.206 100.167 53.7447 95.1692 55.252L115.399 90H101.238ZM137.61 90V10.508H185.329V21.218H149.391V42.995H180.331V53.824H149.391V79.29H186.638V90H137.61ZM213.729 90V10.508H261.448V21.218H225.51V42.995H256.45V53.824H225.51V79.29H262.757V90H213.729Z" fill="black"/>
</g>
<defs>
<clipPath id="clip0">
<rect width="255" height="111" fill="white"/>
</clipPath>
</defs>
</svg>
