<svg xmlns="http://www.w3.org/2000/svg" viewBox="0 0 1250 1500" width="1250" height="1500">
	<defs>
		<clipPath clipPathUnits="userSpaceOnUse" id="cp1">
			<path d="M-335 150L1585 150L1585 1350L-335 1350L-335 150Z" />
		</clipPath>
	</defs>
	<style>
		tspan { white-space:pre }
		.shp0 { fill: #000000 } 
	</style>
	<g id="Clip-Path" clip-path="url(#cp1)">
		<g id="Layer">
			<path id="Layer" class="shp0" d="M-336 262L-295 262L-295 270L-336 270L-336 262Z" />
			<path id="Layer" class="shp0" d="M-270 262L-229 262L-229 270L-270 270L-270 262Z" />
			<path id="Layer" class="shp0" d="M-204 262L-163 262L-163 270L-204 270L-204 262Z" />
			<path id="Layer" class="shp0" d="M-138 262L-97 262L-97 270L-138 270L-138 262Z" />
			<path id="Layer" class="shp0" d="M-72 262L-31 262L-31 270L-72 270L-72 262Z" />
			<path id="Layer" class="shp0" d="M-6 262L35 262L35 270L-6 270L-6 262Z" />
			<path id="Layer" class="shp0" d="M60 262L101 262L101 270L60 270L60 262Z" />
			<path id="Layer" class="shp0" d="M126 262L167 262L167 270L126 270L126 262Z" />
			<path id="Layer" class="shp0" d="M192 262L233 262L233 270L192 270L192 262Z" />
			<path id="Layer" class="shp0" d="M258 262L299 262L299 270L258 270L258 262Z" />
			<path id="Layer" class="shp0" d="M324 262L365 262L365 270L324 270L324 262Z" />
			<path id="Layer" class="shp0" d="M390 262L431 262L431 270L390 270L390 262Z" />
			<path id="Layer" class="shp0" d="M456 262L497 262L497 270L456 270L456 262Z" />
			<path id="Layer" class="shp0" d="M522 262L563 262L563 270L522 270L522 262Z" />
			<path id="Layer" class="shp0" d="M588 262L629 262L629 270L588 270L588 262Z" />
			<path id="Layer" class="shp0" d="M654 262L695 262L695 270L654 270L654 262Z" />
			<path id="Layer" class="shp0" d="M720 262L761 262L761 270L720 270L720 262Z" />
			<path id="Layer" class="shp0" d="M786 262L827 262L827 270L786 270L786 262Z" />
			<path id="Layer" class="shp0" d="M852 262L893 262L893 270L852 270L852 262Z" />
			<path id="Layer" class="shp0" d="M918 262L959 262L959 270L918 270L918 262Z" />
			<path id="Layer" class="shp0" d="M984 262L1025 262L1025 270L984 270L984 262Z" />
			<path id="Layer" class="shp0" d="M1050 262L1091 262L1091 270L1050 270L1050 262Z" />
			<path id="Layer" class="shp0" d="M1116 262L1157 262L1157 270L1116 270L1116 262Z" />
			<path id="Layer" class="shp0" d="M1104 451L1145 451L1145 459L1104 459L1104 451Z" />
			<path id="Layer" class="shp0" d="M1038 451L1079 451L1079 459L1038 459L1038 451Z" />
			<path id="Layer" class="shp0" d="M972 451L1013 451L1013 459L972 459L972 451Z" />
			<path id="Layer" class="shp0" d="M906 451L947 451L947 459L906 459L906 451Z" />
			<path id="Layer" class="shp0" d="M840 451L881 451L881 459L840 459L840 451Z" />
			<path id="Layer" class="shp0" d="M775 451L816 451L816 459L775 459L775 451Z" />
			<path id="Layer" class="shp0" d="M710 451L751 451L751 459L710 459L710 451Z" />
			<path id="Layer" class="shp0" d="M644 451L685 451L685 459L644 459L644 451Z" />
			<path id="Layer" class="shp0" d="M578 451L619 451L619 459L578 459L578 451Z" />
			<path id="Layer" class="shp0" d="M512 451L553 451L553 459L512 459L512 451Z" />
			<path id="Layer" class="shp0" d="M446 451L487 451L487 459L446 459L446 451Z" />
			<path id="Layer" class="shp0" d="M380 451L421 451L421 459L380 459L380 451Z" />
			<path id="Layer" class="shp0" d="M314 451L355 451L355 459L314 459L314 451Z" />
			<path id="Layer" class="shp0" d="M248 451L289 451L289 459L248 459L248 451Z" />
			<path id="Layer" class="shp0" d="M182 451L223 451L223 459L182 459L182 451Z" />
			<path id="Layer" class="shp0" d="M143 451L157 451L157 459L143 459L143 451Z" />
			<path id="Layer" class="shp0" d="M1170 451L1206 451L1206 459L1170 459L1170 451Z" />
			<path id="Layer" class="shp0" d="M1182 262L1206 262L1206 270L1182 270L1182 262Z" />
			<path id="Layer" class="shp0" d="M-204 262L-163 262L-163 264L-204 264L-204 262Z" />
			<path id="Layer" class="shp0" d="M1198 262L1206 262L1206 287L1198 287L1198 262Z" />
			<path id="Layer" class="shp0" d="M1198 312L1206 312L1206 354L1198 354L1198 312Z" />
			<path id="Layer" class="shp0" d="M1198 379L1206 379L1206 421L1198 421L1198 379Z" />
			<path id="Layer" class="shp0" d="M1198 446L1206 446L1206 459L1198 459L1198 446Z" />
			<path id="Layer" class="shp0" d="M143 451L151 451L151 485L143 485L143 451Z" />
			<path id="Layer" class="shp0" d="M143 510L151 510L151 551L143 551L143 510Z" />
			<path id="Layer" class="shp0" d="M143 576L151 576L151 617L143 617L143 576Z" />
			<path id="Layer" class="shp0" d="M143 642L151 642L151 683L143 683L143 642Z" />
			<path id="Layer" class="shp0" d="M143 708L151 708L151 749L143 749L143 708Z" />
			<path id="Layer" class="shp0" d="M143 774L151 774L151 815L143 815L143 774Z" />
			<path id="Layer" class="shp0" d="M143 840L151 840L151 881L143 881L143 840Z" />
			<path id="Layer" class="shp0" d="M143 906L151 906L151 947L143 947L143 906Z" />
			<path id="Layer" class="shp0" d="M143 972L151 972L151 1013L143 1013L143 972Z" />
			<path id="Layer" class="shp0" d="M143 1038L151 1038L151 1079L143 1079L143 1038Z" />
			<path id="Layer" class="shp0" d="M139 1080L155 1080L155 1117L139 1117L139 1080Z" />
			<path id="Layer" class="shp0" d="M139 1150L155 1150L155 1187L139 1187L139 1150Z" />
			<path id="Layer" class="shp0" d="M162 1126L196 1126L196 1142L162 1142L162 1126Z" />
			<path id="Layer" class="shp0" d="M162 1126L196 1126L196 1142L162 1142L162 1126Z" />
			<path id="Layer" class="shp0" d="M162 1126L196 1126L196 1142L162 1142L162 1126Z" />
			<path id="Layer" class="shp0" d="M162 1126L196 1126L196 1142L162 1142L162 1126Z" />
			<path id="Layer" class="shp0" d="M162 1126L196 1126L196 1142L162 1142L162 1126Z" />
			<path id="Layer" class="shp0" d="M162 1126L196 1126L196 1142L162 1142L162 1126Z" />
			<path id="Layer" class="shp0" d="M162 1126L196 1126L196 1142L162 1142L162 1126Z" />
			<path id="Layer" class="shp0" d="M98 1126L132 1126L132 1142L98 1142L98 1126Z" />
			<path id="Layer" class="shp0" d="M98 1126L132 1126L132 1142L98 1142L98 1126Z" />
			<path id="Layer" class="shp0" d="M98 1126L132 1126L132 1142L98 1142L98 1126Z" />
			<path id="Layer" class="shp0" d="M98 1126L132 1126L132 1142L98 1142L98 1126Z" />
			<path id="Layer" class="shp0" d="M98 1126L132 1126L132 1142L98 1142L98 1126Z" />
			<path id="Layer" class="shp0" d="M98 1126L132 1126L132 1142L98 1142L98 1126Z" />
			<path id="Layer" class="shp0" d="M98 1126L132 1126L132 1142L98 1142L98 1126Z" />
		</g>
	</g>
</svg>