<svg width="1920" height="1200" viewBox="0 0 1920 1200" fill="none" xmlns="http://www.w3.org/2000/svg">
<g clip-path="url(#clip0)">
<rect x="-1" y="112" width="41" height="8" fill="black"/>
<rect x="65" y="112" width="41" height="8" fill="black"/>
<rect x="131" y="112" width="41" height="8" fill="black"/>
<rect x="197" y="112" width="41" height="8" fill="black"/>
<rect x="263" y="112" width="41" height="8" fill="black"/>
<rect x="329" y="112" width="41" height="8" fill="black"/>
<rect x="395" y="112" width="41" height="8" fill="black"/>
<rect x="461" y="112" width="41" height="8" fill="black"/>
<rect x="527" y="112" width="41" height="8" fill="black"/>
<rect x="593" y="112" width="41" height="8" fill="black"/>
<rect x="659" y="112" width="41" height="8" fill="black"/>
<rect x="725" y="112" width="41" height="8" fill="black"/>
<rect x="791" y="112" width="41" height="8" fill="black"/>
<rect x="857" y="112" width="41" height="8" fill="black"/>
<rect x="923" y="112" width="41" height="8" fill="black"/>
<rect x="989" y="112" width="41" height="8" fill="black"/>
<rect x="1055" y="112" width="41" height="8" fill="black"/>
<rect x="1121" y="112" width="41" height="8" fill="black"/>
<rect x="1187" y="112" width="41" height="8" fill="black"/>
<rect x="1253" y="112" width="41" height="8" fill="black"/>
<rect x="1319" y="112" width="41" height="8" fill="black"/>
<rect x="1385" y="112" width="41" height="8" fill="black"/>
<rect x="1451" y="112" width="41" height="8" fill="black"/>
<rect x="1439" y="301" width="41" height="8" fill="black"/>
<rect x="1373" y="301" width="41" height="8" fill="black"/>
<rect x="1307" y="301" width="41" height="8" fill="black"/>
<rect x="1241" y="301" width="41" height="8" fill="black"/>
<rect x="1175" y="301" width="41" height="8" fill="black"/>
<rect x="1110" y="301" width="41" height="8" fill="black"/>
<rect x="1045" y="301" width="41" height="8" fill="black"/>
<rect x="979" y="301" width="41" height="8" fill="black"/>
<rect x="913" y="301" width="41" height="8" fill="black"/>
<rect x="847" y="301" width="41" height="8" fill="black"/>
<rect x="781" y="301" width="41" height="8" fill="black"/>
<rect x="715" y="301" width="41" height="8" fill="black"/>
<rect x="649" y="301" width="41" height="8" fill="black"/>
<rect x="583" y="301" width="41" height="8" fill="black"/>
<rect x="517" y="301" width="41" height="8" fill="black"/>
<rect x="478" y="301" width="14" height="8" fill="black"/>
<rect x="1505" y="301" width="36" height="8" fill="black"/>
<rect x="1517" y="112" width="24" height="8" fill="black"/>
<rect x="131" y="112" width="41" height="2" fill="black"/>
<rect x="1533" y="112" width="8" height="25" fill="black"/>
<rect x="1533" y="162" width="8" height="42" fill="black"/>
<rect x="1533" y="229" width="8" height="42" fill="black"/>
<rect x="1533" y="296" width="8" height="13" fill="black"/>
<rect x="478" y="301" width="8" height="34" fill="black"/>
<rect x="478" y="360" width="8" height="41" fill="black"/>
<rect x="478" y="426" width="8" height="41" fill="black"/>
<rect x="478" y="492" width="8" height="41" fill="black"/>
<rect x="478" y="558" width="8" height="41" fill="black"/>
<rect x="478" y="624" width="8" height="41" fill="black"/>
<rect x="478" y="690" width="8" height="41" fill="black"/>
<rect x="478" y="756" width="8" height="41" fill="black"/>
<rect x="478" y="822" width="8" height="41" fill="black"/>
<rect x="478" y="888" width="8" height="41" fill="black"/>
<rect x="474" y="930" width="16" height="37" fill="black"/>
<rect x="474" y="1000" width="16" height="37" fill="black"/>
<rect x="497" y="976" width="34" height="16" fill="black"/>
<rect x="497" y="976" width="34" height="16" fill="black"/>
<rect x="497" y="976" width="34" height="16" fill="black"/>
<rect x="497" y="976" width="34" height="16" fill="black"/>
<rect x="497" y="976" width="34" height="16" fill="black"/>
<rect x="497" y="976" width="34" height="16" fill="black"/>
<rect x="497" y="976" width="34" height="16" fill="black"/>
<rect x="433" y="976" width="34" height="16" fill="black"/>
<rect x="433" y="976" width="34" height="16" fill="black"/>
<rect x="433" y="976" width="34" height="16" fill="black"/>
<rect x="433" y="976" width="34" height="16" fill="black"/>
<rect x="433" y="976" width="34" height="16" fill="black"/>
<rect x="433" y="976" width="34" height="16" fill="black"/>
<rect x="433" y="976" width="34" height="16" fill="black"/>
</g>
<defs>
<clipPath id="clip0">
<rect width="1920" height="1200" fill="white"/>
</clipPath>
</defs>
</svg>
