<svg xmlns="http://www.w3.org/2000/svg" viewBox="0 0 800 500" width="800" height="500">
	<defs>
		<clipPath clipPathUnits="userSpaceOnUse" id="cp1">
			<path d="M0 0L800 0L800 500L0 500L0 0Z" />
		</clipPath>
	</defs>
	<style>
		tspan { white-space:pre }
		.shp0 { fill: #000000 } 
	</style>
	<g id="Clip-Path" clip-path="url(#cp1)">
		<g id="Layer">
			<path id="Layer" class="shp0" d="M-0.42 46.67L16.67 46.67L16.67 50L-0.42 50L-0.42 46.67Z" />
			<path id="Layer" class="shp0" d="M27.08 46.67L44.17 46.67L44.17 50L27.08 50L27.08 46.67Z" />
			<path id="Layer" class="shp0" d="M54.58 46.67L71.67 46.67L71.67 50L54.58 50L54.58 46.67Z" />
			<path id="Layer" class="shp0" d="M82.08 46.67L99.17 46.67L99.17 50L82.08 50L82.08 46.67Z" />
			<path id="Layer" class="shp0" d="M109.58 46.67L126.67 46.67L126.67 50L109.58 50L109.58 46.67Z" />
			<path id="Layer" class="shp0" d="M137.08 46.67L154.17 46.67L154.17 50L137.08 50L137.08 46.67Z" />
			<path id="Layer" class="shp0" d="M164.58 46.67L181.67 46.67L181.67 50L164.58 50L164.58 46.67Z" />
			<path id="Layer" class="shp0" d="M192.08 46.67L209.17 46.67L209.17 50L192.08 50L192.08 46.67Z" />
			<path id="Layer" class="shp0" d="M219.58 46.67L236.67 46.67L236.67 50L219.58 50L219.58 46.67Z" />
			<path id="Layer" class="shp0" d="M247.08 46.67L264.17 46.67L264.17 50L247.08 50L247.08 46.67Z" />
			<path id="Layer" class="shp0" d="M274.58 46.67L291.67 46.67L291.67 50L274.58 50L274.58 46.67Z" />
			<path id="Layer" class="shp0" d="M302.08 46.67L319.17 46.67L319.17 50L302.08 50L302.08 46.67Z" />
			<path id="Layer" class="shp0" d="M329.58 46.67L346.67 46.67L346.67 50L329.58 50L329.58 46.67Z" />
			<path id="Layer" class="shp0" d="M357.08 46.67L374.17 46.67L374.17 50L357.08 50L357.08 46.67Z" />
			<path id="Layer" class="shp0" d="M384.58 46.67L401.67 46.67L401.67 50L384.58 50L384.58 46.67Z" />
			<path id="Layer" class="shp0" d="M412.08 46.67L429.17 46.67L429.17 50L412.08 50L412.08 46.67Z" />
			<path id="Layer" class="shp0" d="M439.58 46.67L456.67 46.67L456.67 50L439.58 50L439.58 46.67Z" />
			<path id="Layer" class="shp0" d="M467.08 46.67L484.17 46.67L484.17 50L467.08 50L467.08 46.67Z" />
			<path id="Layer" class="shp0" d="M494.58 46.67L511.67 46.67L511.67 50L494.58 50L494.58 46.67Z" />
			<path id="Layer" class="shp0" d="M522.08 46.67L539.17 46.67L539.17 50L522.08 50L522.08 46.67Z" />
			<path id="Layer" class="shp0" d="M549.58 46.67L566.67 46.67L566.67 50L549.58 50L549.58 46.67Z" />
			<path id="Layer" class="shp0" d="M577.08 46.67L594.17 46.67L594.17 50L577.08 50L577.08 46.67Z" />
			<path id="Layer" class="shp0" d="M604.58 46.67L621.67 46.67L621.67 50L604.58 50L604.58 46.67Z" />
			<path id="Layer" class="shp0" d="M599.58 125.42L616.67 125.42L616.67 128.75L599.58 128.75L599.58 125.42Z" />
			<path id="Layer" class="shp0" d="M572.08 125.42L589.17 125.42L589.17 128.75L572.08 128.75L572.08 125.42Z" />
			<path id="Layer" class="shp0" d="M544.58 125.42L561.67 125.42L561.67 128.75L544.58 128.75L544.58 125.42Z" />
			<path id="Layer" class="shp0" d="M517.08 125.42L534.17 125.42L534.17 128.75L517.08 128.75L517.08 125.42Z" />
			<path id="Layer" class="shp0" d="M489.58 125.42L506.67 125.42L506.67 128.75L489.58 128.75L489.58 125.42Z" />
			<path id="Layer" class="shp0" d="M462.5 125.42L479.58 125.42L479.58 128.75L462.5 128.75L462.5 125.42Z" />
			<path id="Layer" class="shp0" d="M435.42 125.42L452.5 125.42L452.5 128.75L435.42 128.75L435.42 125.42Z" />
			<path id="Layer" class="shp0" d="M407.92 125.42L425 125.42L425 128.75L407.92 128.75L407.92 125.42Z" />
			<path id="Layer" class="shp0" d="M380.42 125.42L397.5 125.42L397.5 128.75L380.42 128.75L380.42 125.42Z" />
			<path id="Layer" class="shp0" d="M352.92 125.42L370 125.42L370 128.75L352.92 128.75L352.92 125.42Z" />
			<path id="Layer" class="shp0" d="M325.42 125.42L342.5 125.42L342.5 128.75L325.42 128.75L325.42 125.42Z" />
			<path id="Layer" class="shp0" d="M297.92 125.42L315 125.42L315 128.75L297.92 128.75L297.92 125.42Z" />
			<path id="Layer" class="shp0" d="M270.42 125.42L287.5 125.42L287.5 128.75L270.42 128.75L270.42 125.42Z" />
			<path id="Layer" class="shp0" d="M242.92 125.42L260 125.42L260 128.75L242.92 128.75L242.92 125.42Z" />
			<path id="Layer" class="shp0" d="M215.42 125.42L232.5 125.42L232.5 128.75L215.42 128.75L215.42 125.42Z" />
			<path id="Layer" class="shp0" d="M199.17 125.42L205 125.42L205 128.75L199.17 128.75L199.17 125.42Z" />
			<path id="Layer" class="shp0" d="M627.08 125.42L642.08 125.42L642.08 128.75L627.08 128.75L627.08 125.42Z" />
			<path id="Layer" class="shp0" d="M632.08 46.67L642.08 46.67L642.08 50L632.08 50L632.08 46.67Z" />
			<path id="Layer" class="shp0" d="M54.58 46.67L71.67 46.67L71.67 47.5L54.58 47.5L54.58 46.67Z" />
			<path id="Layer" class="shp0" d="M638.75 46.67L642.08 46.67L642.08 57.08L638.75 57.08L638.75 46.67Z" />
			<path id="Layer" class="shp0" d="M638.75 67.5L642.08 67.5L642.08 85L638.75 85L638.75 67.5Z" />
			<path id="Layer" class="shp0" d="M638.75 95.42L642.08 95.42L642.08 112.92L638.75 112.92L638.75 95.42Z" />
			<path id="Layer" class="shp0" d="M638.75 123.33L642.08 123.33L642.08 128.75L638.75 128.75L638.75 123.33Z" />
			<path id="Layer" class="shp0" d="M199.17 125.42L202.5 125.42L202.5 139.58L199.17 139.58L199.17 125.42Z" />
			<path id="Layer" class="shp0" d="M199.17 150L202.5 150L202.5 167.08L199.17 167.08L199.17 150Z" />
			<path id="Layer" class="shp0" d="M199.17 177.5L202.5 177.5L202.5 194.58L199.17 194.58L199.17 177.5Z" />
			<path id="Layer" class="shp0" d="M199.17 205L202.5 205L202.5 222.08L199.17 222.08L199.17 205Z" />
			<path id="Layer" class="shp0" d="M199.17 232.5L202.5 232.5L202.5 249.58L199.17 249.58L199.17 232.5Z" />
			<path id="Layer" class="shp0" d="M199.17 260L202.5 260L202.5 277.08L199.17 277.08L199.17 260Z" />
			<path id="Layer" class="shp0" d="M199.17 287.5L202.5 287.5L202.5 304.58L199.17 304.58L199.17 287.5Z" />
			<path id="Layer" class="shp0" d="M199.17 315L202.5 315L202.5 332.08L199.17 332.08L199.17 315Z" />
			<path id="Layer" class="shp0" d="M199.17 342.5L202.5 342.5L202.5 359.58L199.17 359.58L199.17 342.5Z" />
			<path id="Layer" class="shp0" d="M199.17 370L202.5 370L202.5 387.08L199.17 387.08L199.17 370Z" />
			<path id="Layer" class="shp0" d="M197.5 387.5L204.17 387.5L204.17 402.92L197.5 402.92L197.5 387.5Z" />
			<path id="Layer" class="shp0" d="M197.5 416.67L204.17 416.67L204.17 432.08L197.5 432.08L197.5 416.67Z" />
			<path id="Layer" class="shp0" d="M207.08 406.67L221.25 406.67L221.25 413.33L207.08 413.33L207.08 406.67Z" />
			<path id="Layer" class="shp0" d="M207.08 406.67L221.25 406.67L221.25 413.33L207.08 413.33L207.08 406.67Z" />
			<path id="Layer" class="shp0" d="M207.08 406.67L221.25 406.67L221.25 413.33L207.08 413.33L207.08 406.67Z" />
			<path id="Layer" class="shp0" d="M207.08 406.67L221.25 406.67L221.25 413.33L207.08 413.33L207.08 406.67Z" />
			<path id="Layer" class="shp0" d="M207.08 406.67L221.25 406.67L221.25 413.33L207.08 413.33L207.08 406.67Z" />
			<path id="Layer" class="shp0" d="M207.08 406.67L221.25 406.67L221.25 413.33L207.08 413.33L207.08 406.67Z" />
			<path id="Layer" class="shp0" d="M207.08 406.67L221.25 406.67L221.25 413.33L207.08 413.33L207.08 406.67Z" />
			<path id="Layer" class="shp0" d="M180.42 406.67L194.58 406.67L194.58 413.33L180.42 413.33L180.42 406.67Z" />
			<path id="Layer" class="shp0" d="M180.42 406.67L194.58 406.67L194.58 413.33L180.42 413.33L180.42 406.67Z" />
			<path id="Layer" class="shp0" d="M180.42 406.67L194.58 406.67L194.58 413.33L180.42 413.33L180.42 406.67Z" />
			<path id="Layer" class="shp0" d="M180.42 406.67L194.58 406.67L194.58 413.33L180.42 413.33L180.42 406.67Z" />
			<path id="Layer" class="shp0" d="M180.42 406.67L194.58 406.67L194.58 413.33L180.42 413.33L180.42 406.67Z" />
			<path id="Layer" class="shp0" d="M180.42 406.67L194.58 406.67L194.58 413.33L180.42 413.33L180.42 406.67Z" />
			<path id="Layer" class="shp0" d="M180.42 406.67L194.58 406.67L194.58 413.33L180.42 413.33L180.42 406.67Z" />
		</g>
	</g>
</svg>