<svg xmlns="http://www.w3.org/2000/svg" viewBox="0 0 1550 1200" width="1550" height="1200">
	<defs>
		<clipPath clipPathUnits="userSpaceOnUse" id="cp1">
			<path d="M0 0L1550 0L1550 1200L0 1200L0 0Z" />
		</clipPath>
	</defs>
	<style>
		tspan { white-space:pre }
		.shp0 { fill: #000000 } 
	</style>
	<g id="Clip-Path" clip-path="url(#cp1)">
		<g id="Layer">
			<path id="Layer" class="shp0" d="M-0.81 112L32.29 112L32.29 120L-0.81 120L-0.81 112Z" />
			<path id="Layer" class="shp0" d="M52.47 112L85.57 112L85.57 120L52.47 120L52.47 112Z" />
			<path id="Layer" class="shp0" d="M105.76 112L138.85 112L138.85 120L105.76 120L105.76 112Z" />
			<path id="Layer" class="shp0" d="M159.04 112L192.14 112L192.14 120L159.04 120L159.04 112Z" />
			<path id="Layer" class="shp0" d="M212.32 112L245.42 112L245.42 120L212.32 120L212.32 112Z" />
			<path id="Layer" class="shp0" d="M265.6 112L298.7 112L298.7 120L265.6 120L265.6 112Z" />
			<path id="Layer" class="shp0" d="M318.88 112L351.98 112L351.98 120L318.88 120L318.88 112Z" />
			<path id="Layer" class="shp0" d="M372.16 112L405.26 112L405.26 120L372.16 120L372.16 112Z" />
			<path id="Layer" class="shp0" d="M425.44 112L458.54 112L458.54 120L425.44 120L425.44 112Z" />
			<path id="Layer" class="shp0" d="M478.72 112L511.82 112L511.82 120L478.72 120L478.72 112Z" />
			<path id="Layer" class="shp0" d="M532.01 112L565.1 112L565.1 120L532.01 120L532.01 112Z" />
			<path id="Layer" class="shp0" d="M585.29 112L618.39 112L618.39 120L585.29 120L585.29 112Z" />
			<path id="Layer" class="shp0" d="M638.57 112L671.67 112L671.67 120L638.57 120L638.57 112Z" />
			<path id="Layer" class="shp0" d="M691.85 112L724.95 112L724.95 120L691.85 120L691.85 112Z" />
			<path id="Layer" class="shp0" d="M745.13 112L778.23 112L778.23 120L745.13 120L745.13 112Z" />
			<path id="Layer" class="shp0" d="M798.41 112L831.51 112L831.51 120L798.41 120L798.41 112Z" />
			<path id="Layer" class="shp0" d="M851.69 112L884.79 112L884.79 120L851.69 120L851.69 112Z" />
			<path id="Layer" class="shp0" d="M904.97 112L938.07 112L938.07 120L904.97 120L904.97 112Z" />
			<path id="Layer" class="shp0" d="M958.26 112L991.35 112L991.35 120L958.26 120L958.26 112Z" />
			<path id="Layer" class="shp0" d="M1011.54 112L1044.64 112L1044.64 120L1011.54 120L1011.54 112Z" />
			<path id="Layer" class="shp0" d="M1064.82 112L1097.92 112L1097.92 120L1064.82 120L1064.82 112Z" />
			<path id="Layer" class="shp0" d="M1118.1 112L1151.2 112L1151.2 120L1118.1 120L1118.1 112Z" />
			<path id="Layer" class="shp0" d="M1171.38 112L1204.48 112L1204.48 120L1171.38 120L1171.38 112Z" />
			<path id="Layer" class="shp0" d="M1161.69 301L1194.79 301L1194.79 309L1161.69 309L1161.69 301Z" />
			<path id="Layer" class="shp0" d="M1108.41 301L1141.51 301L1141.51 309L1108.41 309L1108.41 301Z" />
			<path id="Layer" class="shp0" d="M1055.13 301L1088.23 301L1088.23 309L1055.13 309L1055.13 301Z" />
			<path id="Layer" class="shp0" d="M1001.85 301L1034.95 301L1034.95 309L1001.85 309L1001.85 301Z" />
			<path id="Layer" class="shp0" d="M948.57 301L981.67 301L981.67 309L948.57 309L948.57 301Z" />
			<path id="Layer" class="shp0" d="M896.09 301L929.19 301L929.19 309L896.09 309L896.09 301Z" />
			<path id="Layer" class="shp0" d="M843.62 301L876.72 301L876.72 309L843.62 309L843.62 301Z" />
			<path id="Layer" class="shp0" d="M790.34 301L823.44 301L823.44 309L790.34 309L790.34 301Z" />
			<path id="Layer" class="shp0" d="M737.06 301L770.16 301L770.16 309L737.06 309L737.06 301Z" />
			<path id="Layer" class="shp0" d="M683.78 301L716.88 301L716.88 309L683.78 309L683.78 301Z" />
			<path id="Layer" class="shp0" d="M630.49 301L663.59 301L663.59 309L630.49 309L630.49 301Z" />
			<path id="Layer" class="shp0" d="M577.21 301L610.31 301L610.31 309L577.21 309L577.21 301Z" />
			<path id="Layer" class="shp0" d="M523.93 301L557.03 301L557.03 309L523.93 309L523.93 301Z" />
			<path id="Layer" class="shp0" d="M470.65 301L503.75 301L503.75 309L470.65 309L470.65 301Z" />
			<path id="Layer" class="shp0" d="M417.37 301L450.47 301L450.47 309L417.37 309L417.37 301Z" />
			<path id="Layer" class="shp0" d="M385.89 301L397.19 301L397.19 309L385.89 309L385.89 301Z" />
			<path id="Layer" class="shp0" d="M1214.97 301L1244.04 301L1244.04 309L1214.97 309L1214.97 301Z" />
			<path id="Layer" class="shp0" d="M1224.66 112L1244.04 112L1244.04 120L1224.66 120L1224.66 112Z" />
			<path id="Layer" class="shp0" d="M105.76 112L138.85 112L138.85 114L105.76 114L105.76 112Z" />
			<path id="Layer" class="shp0" d="M1237.58 112L1244.04 112L1244.04 137L1237.58 137L1237.58 112Z" />
			<path id="Layer" class="shp0" d="M1237.58 162L1244.04 162L1244.04 204L1237.58 204L1237.58 162Z" />
			<path id="Layer" class="shp0" d="M1237.58 229L1244.04 229L1244.04 271L1237.58 271L1237.58 229Z" />
			<path id="Layer" class="shp0" d="M1237.58 296L1244.04 296L1244.04 309L1237.58 309L1237.58 296Z" />
			<path id="Layer" class="shp0" d="M385.89 301L392.34 301L392.34 335L385.89 335L385.89 301Z" />
			<path id="Layer" class="shp0" d="M385.89 360L392.34 360L392.34 401L385.89 401L385.89 360Z" />
			<path id="Layer" class="shp0" d="M385.89 426L392.34 426L392.34 467L385.89 467L385.89 426Z" />
			<path id="Layer" class="shp0" d="M385.89 492L392.34 492L392.34 533L385.89 533L385.89 492Z" />
			<path id="Layer" class="shp0" d="M385.89 558L392.34 558L392.34 599L385.89 599L385.89 558Z" />
			<path id="Layer" class="shp0" d="M385.89 624L392.34 624L392.34 665L385.89 665L385.89 624Z" />
			<path id="Layer" class="shp0" d="M385.89 690L392.34 690L392.34 731L385.89 731L385.89 690Z" />
			<path id="Layer" class="shp0" d="M385.89 756L392.34 756L392.34 797L385.89 797L385.89 756Z" />
			<path id="Layer" class="shp0" d="M385.89 822L392.34 822L392.34 863L385.89 863L385.89 822Z" />
			<path id="Layer" class="shp0" d="M385.89 888L392.34 888L392.34 929L385.89 929L385.89 888Z" />
			<path id="Layer" class="shp0" d="M382.66 930L395.57 930L395.57 967L382.66 967L382.66 930Z" />
			<path id="Layer" class="shp0" d="M382.66 1000L395.57 1000L395.57 1037L382.66 1037L382.66 1000Z" />
			<path id="Layer" class="shp0" d="M401.22 976L428.67 976L428.67 992L401.22 992L401.22 976Z" />
			<path id="Layer" class="shp0" d="M401.22 976L428.67 976L428.67 992L401.22 992L401.22 976Z" />
			<path id="Layer" class="shp0" d="M401.22 976L428.67 976L428.67 992L401.22 992L401.22 976Z" />
			<path id="Layer" class="shp0" d="M401.22 976L428.67 976L428.67 992L401.22 992L401.22 976Z" />
			<path id="Layer" class="shp0" d="M401.22 976L428.67 976L428.67 992L401.22 992L401.22 976Z" />
			<path id="Layer" class="shp0" d="M401.22 976L428.67 976L428.67 992L401.22 992L401.22 976Z" />
			<path id="Layer" class="shp0" d="M401.22 976L428.67 976L428.67 992L401.22 992L401.22 976Z" />
			<path id="Layer" class="shp0" d="M349.56 976L377.01 976L377.01 992L349.56 992L349.56 976Z" />
			<path id="Layer" class="shp0" d="M349.56 976L377.01 976L377.01 992L349.56 992L349.56 976Z" />
			<path id="Layer" class="shp0" d="M349.56 976L377.01 976L377.01 992L349.56 992L349.56 976Z" />
			<path id="Layer" class="shp0" d="M349.56 976L377.01 976L377.01 992L349.56 992L349.56 976Z" />
			<path id="Layer" class="shp0" d="M349.56 976L377.01 976L377.01 992L349.56 992L349.56 976Z" />
			<path id="Layer" class="shp0" d="M349.56 976L377.01 976L377.01 992L349.56 992L349.56 976Z" />
			<path id="Layer" class="shp0" d="M349.56 976L377.01 976L377.01 992L349.56 992L349.56 976Z" />
		</g>
	</g>
</svg>