<svg width="130" height="25" viewBox="0 0 130 25" fill="none" xmlns="http://www.w3.org/2000/svg">
<path d="M4.26113 14.2V12.325L15.8111 7.05V9.5L7.33613 13.275L15.8111 17.05V19.475L4.26113 14.2ZM30.2773 16.125C30.194 17.4583 29.7523 18.4833 28.9523 19.2C28.169 19.9 27.019 20.25 25.5023 20.25C23.7857 20.25 22.4357 19.6833 21.4523 18.55C20.4857 17.4167 20.0023 15.8 20.0023 13.7C20.0023 12.6667 20.1273 11.75 20.3773 10.95C20.644 10.1333 21.019 9.45 21.5023 8.9C21.9857 8.33333 22.569 7.90833 23.2523 7.625C23.9357 7.325 24.7023 7.175 25.5523 7.175C26.169 7.175 26.7357 7.23333 27.2523 7.35C27.769 7.46667 28.2273 7.66667 28.6273 7.95C29.0273 8.21667 29.3607 8.58333 29.6273 9.05C29.894 9.5 30.069 10.075 30.1523 10.775H27.6523C27.4523 9.85833 26.7523 9.4 25.5523 9.4C24.5857 9.4 23.844 9.78333 23.3273 10.55C22.8273 11.3 22.5773 12.35 22.5773 13.7C22.5773 15.1 22.8357 16.175 23.3523 16.925C23.8857 17.6583 24.6023 18.025 25.5023 18.025C26.2023 18.025 26.719 17.8583 27.0523 17.525C27.4023 17.175 27.619 16.7083 27.7023 16.125H30.2773ZM43.5416 13.7C43.5416 13.05 43.4499 12.4667 43.2666 11.95C43.0999 11.4167 42.8583 10.9667 42.5416 10.6C42.2416 10.2167 41.8749 9.925 41.4416 9.725C41.0083 9.525 40.5333 9.425 40.0166 9.425C39.4999 9.425 39.0249 9.525 38.5916 9.725C38.1583 9.925 37.7833 10.2167 37.4666 10.6C37.1666 10.9667 36.9249 11.4167 36.7416 11.95C36.5749 12.4667 36.4916 13.05 36.4916 13.7C36.4916 14.35 36.5749 14.9417 36.7416 15.475C36.9249 16.0083 37.1666 16.4667 37.4666 16.85C37.7833 17.2167 38.1583 17.5 38.5916 17.7C39.0249 17.9 39.4999 18 40.0166 18C40.5333 18 41.0083 17.9 41.4416 17.7C41.8749 17.5 42.2416 17.2167 42.5416 16.85C42.8583 16.4667 43.0999 16.0083 43.2666 15.475C43.4499 14.9417 43.5416 14.35 43.5416 13.7ZM46.1416 13.7C46.1416 14.6833 45.9916 15.575 45.6916 16.375C45.4083 17.175 44.9999 17.8667 44.4666 18.45C43.9333 19.0167 43.2833 19.4583 42.5166 19.775C41.7666 20.0917 40.9333 20.25 40.0166 20.25C39.0833 20.25 38.2416 20.0917 37.4916 19.775C36.7416 19.4583 36.0999 19.0167 35.5666 18.45C35.0333 17.8667 34.6166 17.175 34.3166 16.375C34.0333 15.575 33.8916 14.6833 33.8916 13.7C33.8916 12.7333 34.0333 11.85 34.3166 11.05C34.6166 10.2333 35.0333 9.54167 35.5666 8.975C36.0999 8.40833 36.7416 7.96667 37.4916 7.65C38.2416 7.33333 39.0833 7.175 40.0166 7.175C40.9333 7.175 41.7666 7.33333 42.5166 7.65C43.2833 7.96667 43.9333 8.40833 44.4666 8.975C44.9999 9.54167 45.4083 10.2333 45.6916 11.05C45.9916 11.85 46.1416 12.7333 46.1416 13.7ZM59.0828 13.7C59.0828 12.4 58.7995 11.3583 58.2328 10.575C57.6828 9.775 56.8578 9.375 55.7578 9.375C54.6578 9.375 53.8245 9.775 53.2578 10.575C52.6911 11.3583 52.4078 12.4 52.4078 13.7C52.4078 14.35 52.4745 14.9417 52.6078 15.475C52.7578 16.0083 52.9745 16.4667 53.2578 16.85C53.5411 17.2333 53.8911 17.5333 54.3078 17.75C54.7245 17.95 55.2078 18.05 55.7578 18.05C56.8411 18.05 57.6661 17.65 58.2328 16.85C58.7995 16.0333 59.0828 14.9833 59.0828 13.7ZM59.2078 20V18.6C58.7745 19.1333 58.2495 19.5417 57.6328 19.825C57.0328 20.1083 56.2828 20.25 55.3828 20.25C54.6995 20.25 54.0245 20.1583 53.3578 19.975C52.6911 19.775 52.0661 19.3833 51.4828 18.8C51.1495 18.45 50.8745 18.075 50.6578 17.675C50.4411 17.2583 50.2661 16.8333 50.1328 16.4C50.0161 15.95 49.9328 15.5 49.8828 15.05C49.8495 14.5833 49.8328 14.1333 49.8328 13.7C49.8328 13.2667 49.8495 12.825 49.8828 12.375C49.9328 11.9083 50.0161 11.4583 50.1328 11.025C50.2495 10.5917 50.4161 10.175 50.6328 9.775C50.8495 9.35833 51.1245 8.975 51.4578 8.625C52.0411 8.04167 52.6661 7.65833 53.3328 7.475C53.9995 7.275 54.6745 7.175 55.3578 7.175C56.2245 7.175 56.9578 7.325 57.5578 7.625C58.1745 7.90833 58.6828 8.30833 59.0828 8.825V2H61.5828V20H59.2078ZM75.099 12.1C75.0157 11.25 74.7324 10.5417 74.249 9.975C73.7657 9.39167 73.0324 9.1 72.049 9.1C71.549 9.1 71.1157 9.18333 70.749 9.35C70.399 9.5 70.099 9.70833 69.849 9.975C69.599 10.2417 69.4074 10.5583 69.274 10.925C69.1407 11.2917 69.049 11.6833 68.999 12.1H75.099ZM68.974 13.775C68.974 14.425 69.024 15.025 69.124 15.575C69.224 16.1083 69.399 16.575 69.649 16.975C69.899 17.375 70.2324 17.6917 70.649 17.925C71.0657 18.1417 71.5907 18.25 72.224 18.25C73.0074 18.25 73.5824 18.1583 73.949 17.975C74.3324 17.7917 74.6157 17.5 74.799 17.1H77.374C77.0407 18.2833 76.449 19.1083 75.599 19.575C74.7657 20.025 73.6407 20.25 72.224 20.25C71.174 20.25 70.274 20.0917 69.524 19.775C68.7907 19.4417 68.1907 18.9833 67.724 18.4C67.274 17.8 66.9407 17.0833 66.724 16.25C66.5074 15.4167 66.399 14.4917 66.399 13.475C66.399 12.475 66.5324 11.5917 66.799 10.825C67.0824 10.0417 67.474 9.38333 67.974 8.85C68.474 8.3 69.0657 7.88333 69.749 7.6C70.449 7.31667 71.2157 7.175 72.049 7.175C73.899 7.175 75.3074 7.75833 76.274 8.925C77.2407 10.075 77.724 11.6917 77.724 13.775H68.974ZM85.7652 21.3H83.1402L90.2152 2H92.8402L85.7652 21.3ZM106.856 8.175C106.856 7.375 106.623 6.74167 106.156 6.275C105.706 5.79167 105.031 5.55 104.131 5.55H101.706V10.775H104.131C105.031 10.775 105.706 10.5417 106.156 10.075C106.623 9.60833 106.856 8.975 106.856 8.175ZM107.456 20L103.631 13.05H101.706V20H99.1814V3.3H104.306C105.006 3.3 105.665 3.40833 106.281 3.625C106.915 3.825 107.465 4.13333 107.931 4.55C108.398 4.95 108.765 5.45833 109.031 6.075C109.315 6.675 109.456 7.375 109.456 8.175C109.456 9.35833 109.173 10.3333 108.606 11.1C108.04 11.85 107.231 12.3833 106.181 12.7L110.431 20H107.456ZM114.198 19.475V17.05L122.673 13.275L114.198 9.5V7.05L125.748 12.325V14.2L114.198 19.475Z" fill="black"/>
</svg>
