<svg xmlns="http://www.w3.org/2000/svg" viewBox="0 0 32 30" width="32" height="30">
	<defs>
		<clipPath clipPathUnits="userSpaceOnUse" id="cp1">
			<path d="M-191 -4987L731 -4987L731 115L-191 115Z" />
		</clipPath>
	</defs>
	<style>
		tspan { white-space:pre }
		.shp0 { fill: #2b2a29 } 
	</style>
	<g id="Page 1" clip-path="url(#cp1)">
		<path id="Path 744" class="shp0" d="M1.32 25.25L5.68 29.7L15.91 19.32L26.49 29.91L30.92 25.52L20.45 15.06L22.46 13.11L22.46 8.96L23.73 7.89L23.73 11.14L25.35 12.47L30.21 7.61L31.77 8.81C32.69 5.41 27.36 -2.32 22.96 1.96L17.82 7.05L18.87 8.32L16.26 10.86L13.73 8.38L15.06 7.18L9.43 1.75C5.19 -1.74 0.85 3.56 0.7 8.74L2.24 7.46L6.97 12.55L8.66 11.14L8.66 8.02L9.71 8.81L9.71 12.9L11.76 14.95L1.32 25.25Z" />
	</g>
</svg>