<svg width="167" height="102" viewBox="0 0 167 102" fill="none" xmlns="http://www.w3.org/2000/svg">
<rect x="11" y="2" width="146" height="6" fill="black"/>
<rect x="11" y="67" width="80" height="6" fill="black"/>
<rect x="105" y="67" width="52" height="6" fill="black"/>
<rect x="6" y="8" width="5" height="6" fill="black"/>
<rect x="157" y="8" width="5" height="6" fill="black"/>
<rect x="157" y="61" width="5" height="6" fill="black"/>
<rect x="6" y="61" width="5" height="6" fill="black"/>
<rect x="1" y="14" width="5" height="47" fill="black"/>
<rect x="162" y="14" width="5" height="47" fill="black"/>
<rect x="105" y="73" width="5" height="9" fill="black"/>
<rect x="105" y="73" width="5" height="9" fill="black"/>
<rect x="91" y="73" width="5" height="9" fill="black"/>
<rect x="96" y="81" width="5" height="6" fill="black"/>
<rect x="101" y="86" width="6" height="5" fill="black"/>
<rect x="107" y="90" width="9" height="6" fill="black"/>
<rect x="110" y="81" width="6" height="15" fill="black"/>
<rect x="11" y="7" width="146" height="60" fill="white"/>
<rect x="157" y="14" width="5" height="47" fill="white"/>
<rect x="157" y="14" width="5" height="47" fill="white"/>
<rect x="157" y="14" width="5" height="47" fill="white"/>
<rect x="157" y="14" width="5" height="47" fill="white"/>
<rect x="6" y="14" width="6" height="47" fill="white"/>
<rect x="91" y="66" width="14" height="7" fill="white"/>
<rect x="91" y="66" width="14" height="7" fill="white"/>
<rect x="91" y="66" width="14" height="7" fill="white"/>
<rect x="96" y="73" width="9" height="8" fill="white"/>
<rect x="96" y="73" width="9" height="8" fill="white"/>
<rect x="96" y="73" width="9" height="8" fill="white"/>
<rect x="101" y="81" width="4" height="5" fill="white"/>
<rect x="101" y="81" width="4" height="5" fill="white"/>
<rect x="101" y="81" width="4" height="5" fill="white"/>
<rect x="105" y="82" width="5" height="4" fill="white"/>
<rect x="105" y="82" width="5" height="4" fill="white"/>
<rect x="105" y="82" width="5" height="4" fill="white"/>
<rect x="107" y="86" width="3" height="4" fill="white"/>
<rect x="107" y="86" width="3" height="4" fill="white"/>
<rect x="107" y="86" width="3" height="4" fill="white"/>
<rect x="116" y="96" width="5" height="6" fill="black"/>
</svg>
