<svg width="211" height="140" viewBox="0 0 211 140" fill="none" xmlns="http://www.w3.org/2000/svg">
<rect x="50" y="34" width="146" height="6" fill="black"/>
<rect x="50" y="99" width="80" height="6" fill="black"/>
<rect x="144" y="99" width="52" height="6" fill="black"/>
<rect x="45" y="40" width="5" height="6" fill="black"/>
<rect x="196" y="40" width="5" height="6" fill="black"/>
<rect x="196" y="93" width="5" height="6" fill="black"/>
<rect x="45" y="93" width="5" height="6" fill="black"/>
<rect x="40" y="46" width="5" height="47" fill="black"/>
<rect x="201" y="46" width="5" height="47" fill="black"/>
<rect x="144" y="105" width="5" height="9" fill="black"/>
<rect x="144" y="105" width="5" height="9" fill="black"/>
<rect x="130" y="105" width="5" height="9" fill="black"/>
<rect x="135" y="113" width="5" height="6" fill="black"/>
<rect x="140" y="118" width="6" height="5" fill="black"/>
<rect x="146" y="122" width="9" height="6" fill="black"/>
<rect x="149" y="113" width="6" height="15" fill="black"/>
<rect x="155" y="127" width="5" height="6" fill="black"/>
<rect x="50" y="39" width="146" height="60" fill="white"/>
<rect x="196" y="46" width="5" height="47" fill="white"/>
<rect x="196" y="46" width="5" height="47" fill="white"/>
<rect x="196" y="46" width="5" height="47" fill="white"/>
<rect x="196" y="46" width="5" height="47" fill="white"/>
<rect x="45" y="46" width="6" height="47" fill="white"/>
<rect x="130" y="98" width="14" height="7" fill="white"/>
<rect x="130" y="98" width="14" height="7" fill="white"/>
<rect x="130" y="98" width="14" height="7" fill="white"/>
<rect x="135" y="105" width="9" height="8" fill="white"/>
<rect x="135" y="105" width="9" height="8" fill="white"/>
<rect x="135" y="105" width="9" height="8" fill="white"/>
<rect x="140" y="113" width="4" height="5" fill="white"/>
<rect x="140" y="113" width="4" height="5" fill="white"/>
<rect x="140" y="113" width="4" height="5" fill="white"/>
<rect x="144" y="114" width="5" height="4" fill="white"/>
<rect x="144" y="114" width="5" height="4" fill="white"/>
<rect x="144" y="114" width="5" height="4" fill="white"/>
<rect x="146" y="118" width="3" height="4" fill="white"/>
<rect x="146" y="118" width="3" height="4" fill="white"/>
<rect x="146" y="118" width="3" height="4" fill="white"/>
</svg>
